 <svg version="1.0" xmlns="http://www.w3.org/2000/svg"  width="62.000000pt" height="80.000000pt" viewBox="0 0 62.000000 80.000000"  preserveAspectRatio="xMidYMid meet">  <g transform="translate(0.000000,80.000000) scale(0.100000,-0.100000)" fill="#000000" stroke="none"> <path d="M155 756 c-37 -20 -59 -39 -56 -47 14 -50 18 -96 11 -120 -6 -20 -3 -38 11 -65 10 -21 18 -38 16 -39 -12 -4 -93 -49 -98 -54 -12 -11 -19 -71 -9 -71 6 0 10 10 10 23 0 17 11 30 40 46 l40 22 0 -68 c0 -105 -5 -114 -51 -107 -26 4 -39 3 -39 -5 0 -6 16 -11 36 -11 33 0 36 -2 30 -24 -6 -22 -2 -25 45 -35 29 -6 54 -9 56 -7 3 2 -11 7 -29 11 -63 13 -70 16 -59 29 12 14 30 142 27 196 -1 40 28 56 37 19 3 -11 10 -18 16 -14 6 3 9 0 5 -8 -3 -10 5 -16 27 -21 69 -14 128 -2 151 29 13 18 8 -40 -8 -95 -17 -58 -61 -110 -93 -110 -39 0 -73 42 -93 116 -14 53 -17 59 -13 24 8 -60 38 -126 65 -140 69 -37 139 34 156 160 4 27 8 50 9 50 1 0 16 -7 32 -15 52 -26 58 -39 45 -96 -7 -28 -12 -79 -12 -115 0 -35 -3 -64 -7 -64 -10 0 -10 -66 0 -76 6 -7 11 13 10 44 -1 16 5 15 23 -3 25 -25 94 -12 94 17 0 6 -8 4 -18 -5 -26 -23 -58 -21 -76 5 -19 27 -21 104 -4 194 l13 66 31 -5 c20 -3 31 -1 31 7 0 7 -13 10 -35 8 -24 -3 -33 -1 -28 7 4 6 18 11 31 11 13 0 27 5 31 11 4 7 -5 10 -27 7 -19 -2 -34 2 -36 10 -3 8 7 12 31 12 20 0 36 5 36 10 0 6 9 30 20 52 11 23 20 43 20 45 0 1 -12 1 -27 -2 -75 -11 -107 -14 -97 -7 28 18 19 159 -12 210 -14 21 -21 22 -132 22 -114 -1 -119 -2 -177 -34z m225 15 c0 -4 11 -6 25 -3 15 2 25 0 25 -7 0 -6 -10 -11 -22 -12 -13 0 -41 -7 -63 -15 l-40 -14 53 6 c29 2 58 7 66 10 16 6 33 -46 18 -55 -5 -3 -1 -14 8 -24 17 -17 17 -16 9 25 -11 56 -10 81 2 43 9 -31 11 -72 6 -136 -3 -40 -21 -69 -43 -69 -8 0 -14 -5 -14 -11 0 -11 15 -4 43 19 14 13 17 13 17 1 0 -10 3 -10 8 -3 9 14 90 13 88 -1 -8 -40 -19 -55 -42 -55 -13 0 -23 3 -23 8 3 17 -2 32 -10 32 -4 0 -7 -11 -6 -25 2 -14 -1 -25 -7 -25 -5 0 -6 -9 -3 -20 8 -24 5 -25 -40 -3 -28 13 -35 22 -31 38 4 16 1 14 -16 -8 -65 -88 -180 -71 -222 33 -9 22 -20 40 -26 40 -5 0 -10 14 -10 31 0 19 4 28 11 24 6 -4 8 -13 5 -21 -3 -8 0 -11 10 -7 7 3 14 16 14 29 0 13 6 24 13 25 9 0 9 2 0 5 -7 3 -20 1 -31 -5 -17 -9 -18 -7 -14 14 2 14 8 25 13 25 5 0 9 6 9 13 0 8 13 13 33 13 20 0 46 9 62 22 l28 22 -25 0 c-14 0 -45 -11 -71 -23 -32 -17 -49 -21 -57 -13 -18 18 -11 24 43 42 102 34 207 52 207 35z"/> <path d="M215 650 c-18 -19 -17 -20 6 -20 14 0 19 3 12 8 -6 4 21 8 60 9 39 1 65 -2 59 -6 -9 -5 -5 -11 13 -19 30 -14 33 -2 5 23 -15 14 -29 16 -64 11 -27 -4 -47 -3 -51 4 -9 15 -20 12 -40 -10z"/> <path d="M440 619 c0 -6 -7 -17 -15 -25 -19 -20 -19 -41 0 -41 8 0 12 4 9 8 -3 5 2 22 11 39 9 17 11 30 5 30 -5 0 -10 -5 -10 -11z"/> <path d="M327 612 c-3 -4 -3 -19 0 -34 4 -24 7 -25 24 -15 10 6 19 21 18 32 0 17 -1 18 -7 3 -5 -13 -11 -15 -22 -8 -13 9 -13 11 0 20 9 6 10 10 3 10 -6 0 -14 -3 -16 -8z"/> <path d="M243 524 c-10 -7 -27 -14 -37 -14 -18 0 -18 -1 -1 -20 10 -11 26 -20 35 -20 10 0 25 -10 34 -22 9 -13 14 -17 11 -10 -4 7 0 12 9 12 8 0 17 4 20 9 4 5 -4 7 -16 3 -15 -4 -19 -2 -13 7 4 8 17 10 32 6 26 -6 63 1 63 13 0 9 -48 32 -87 42 -22 5 -38 4 -50 -6z"/> <path d="M430 490 c-17 -17 -19 -25 -10 -33 8 -9 14 -8 21 6 6 9 17 17 25 17 9 0 14 5 12 12 -7 21 -26 20 -48 -2z"/> <path d="M589 524 c-6 -16 -11 -59 -11 -96 l0 -66 -31 3 c-18 1 -24 0 -14 -2 10 -3 21 -11 24 -19 3 -8 10 -11 16 -7 5 3 7 1 4 -4 -4 -6 -4 -25 -1 -43 4 -17 10 -27 13 -22 3 6 6 -20 7 -56 0 -42 -2 -59 -8 -46 -6 14 -7 10 -5 -15 2 -26 -4 -38 -25 -54 -23 -17 -31 -19 -53 -9 -26 12 -33 4 -13 -16 19 -19 65 -14 88 10 30 33 43 94 35 163 -20 168 -21 211 -8 249 16 49 0 76 -18 30z"/> <path d="M330 385 c-16 -17 -34 -25 -57 -25 -23 0 -33 -5 -33 -16 0 -11 6 -14 21 -9 15 5 19 4 15 -4 -4 -6 0 -11 9 -11 8 0 18 8 22 18 3 9 17 29 31 45 14 15 23 27 21 27 -3 0 -16 -11 -29 -25z"/> <path d="M406 388 c-3 -13 -6 -43 -6 -68 0 -27 -8 -58 -20 -77 l-20 -33 21 0 c11 0 17 -4 14 -10 -3 -5 -2 -10 3 -10 8 0 23 208 17 218 -2 1 -5 -8 -9 -20z"/> <path d="M517 283 c4 -26 3 -34 -5 -29 -7 4 -12 2 -12 -3 0 -13 10 -14 26 -3 13 8 7 72 -7 72 -4 0 -5 -16 -2 -37z"/> <path d="M30 217 c0 -23 20 -33 88 -44 74 -11 83 1 12 16 -28 6 -62 18 -75 27 -22 14 -25 14 -25 1z"/> <path d="M507 212 c-25 -28 -20 -34 13 -17 17 9 30 20 30 25 0 16 -26 11 -43 -8z"/> <path d="M230 180 c10 -18 21 -20 115 -20 64 0 105 4 105 10 0 7 -35 8 -100 4 -70 -5 -100 -4 -100 4 0 6 23 13 53 15 48 3 47 3 -16 5 -65 2 -67 1 -57 -18z"/> <path d="M19 151 c7 -5 10 -14 6 -20 -8 -14 12 -41 30 -41 15 0 15 51 0 62 -5 4 -19 8 -30 8 -15 0 -17 -2 -6 -9z"/> <path d="M80 110 c0 -23 5 -40 11 -40 7 0 10 13 7 35 -3 30 -1 35 22 38 21 3 20 4 -7 6 -32 1 -33 0 -33 -39z"/> <path d="M206 135 c11 -27 -16 -47 -54 -40 -20 4 -32 2 -28 -3 9 -15 68 -23 82 -11 16 13 19 69 4 69 -5 0 -7 -7 -4 -15z"/> <path d="M240 109 c0 -26 4 -38 11 -33 6 3 8 17 4 32 -4 16 -1 28 7 33 10 7 9 9 -4 9 -14 0 -18 -9 -18 -41z"/> <path d="M300 120 c0 -23 -4 -28 -17 -24 -16 5 -16 4 0 -6 21 -13 67 -21 68 -11 4 35 3 71 -3 71 -5 0 -8 -11 -8 -24 0 -14 -4 -28 -10 -31 -6 -4 -10 7 -10 24 0 17 -4 31 -10 31 -5 0 -10 -13 -10 -30z"/> <path d="M410 120 c0 -16 -3 -29 -7 -27 -5 1 -9 -1 -10 -5 -2 -5 -1 -8 2 -8 3 0 12 0 20 0 10 0 15 11 15 35 0 19 -4 35 -10 35 -5 0 -10 -13 -10 -30z"/> </g> </svg> 